# xmcd
#
# Track frame offsets:
#	150
#	13507
#	29025
#	45893
#	61568
#	77759
#	92841
#	115772
#	129922
#	146965
#	160465
#	173055
#
# Disc length: 2429 seconds
#
# Revision: 1
# Processed by: cddbd v1.5.2PL0 Copyright (c) Steve Scherf et al.
# Submitted via: audiograbber 1.83.01
#
DISCID=93097b0c
DTITLE=Five Finger Death Punch - Got Your Six
DYEAR=2015
DGENRE=Metal
TTITLE0=Got Your Six
TTITLE1=Jekyll And Hyde
TTITLE2=Wash It All Away
TTITLE3=Ain't My Last Dance
TTITLE4=My Nemesis
TTITLE5=No Sudden Movement
TTITLE6=Question Everything
TTITLE7=Hell To Pay
TTITLE8=Diggin' My Own Grave
TTITLE9=Meet My Maker
TTITLE10=Boots and Blood
TTITLE11=Bonus
EXTD=
EXTT0=
EXTT1=
EXTT2=
EXTT3=
EXTT4=
EXTT5=
EXTT6=
EXTT7=
EXTT8=
EXTT9=
EXTT10=
EXTT11=
PLAYORDER=
